<svg width="80" height="80" viewBox="0 0 80 80" fill="none" xmlns="http://www.w3.org/2000/svg">
<path d="M49.2756 40H30.7293C29.0227 40.0031 27.3375 40.3776 25.7927 41.0971C24.248 41.8165 22.8813 42.8634 21.7891 44.1639C20.697 45.4643 19.9059 46.9867 19.4719 48.6234C19.0378 50.2601 18.9713 51.9714 19.277 53.6364H60.7179C61.0235 51.9722 60.9572 50.2618 60.5237 48.6258C60.0902 46.9897 59.3001 45.4679 58.209 44.1677C57.118 42.8674 55.7525 41.8203 54.209 41.1002C52.6655 40.3801 50.9814 40.0045 49.2756 40Z" stroke="black" stroke-width="3" stroke-miterlimit="10" stroke-linecap="round"/>
<path d="M53.1004 40.5668C54.4134 37.1894 56.7324 34.2848 59.7514 32.2361C62.7703 30.1874 66.3472 29.0911 70.01 29.0918H74.7561C75.1817 29.0909 75.5903 29.2568 75.8922 29.5531C76.1941 29.8494 76.3646 30.2519 76.3664 30.6723C76.3673 31.0656 76.2193 31.4451 75.9515 31.7363C75.6837 32.0275 75.3154 32.2092 74.9189 32.246L71.2745 32.6076L65.9758 48.6565C64.1902 54.0702 60.7155 58.7867 56.0497 62.1305C55.87 62.2577 55.7107 62.385 55.5073 62.5055C54.4895 63.2005 53.4248 63.8258 52.3206 64.3772C48.5004 66.2821 44.2806 67.2742 40.0011 67.2736C35.7196 67.2756 31.4979 66.281 27.6782 64.3705C26.572 63.8232 25.506 63.2001 24.4881 62.5055C19.5538 59.1503 15.8759 54.2832 14.023 48.6565L8.72428 32.6076L5.07995 32.246C4.68463 32.2077 4.31798 32.0252 4.05157 31.7342C3.78515 31.4432 3.63811 31.0646 3.63917 30.6723C3.63917 30.2531 3.80775 29.8511 4.10783 29.5547C4.40791 29.2583 4.81491 29.0918 5.23929 29.0918H9.98539C13.5504 29.0891 17.0363 30.1296 20.0031 32.0819C23.1385 34.1327 25.5479 37.0989 26.8951 40.5668" stroke="black" stroke-width="3" stroke-miterlimit="10" stroke-linecap="round"/>
<path d="M20.0748 31.5762L20.5614 28.4188L20.2911 26.8686C19.7957 24.0173 19.9339 21.0929 20.696 18.3002C21.4581 15.5075 22.8257 12.9138 24.7031 10.7008C26.5805 8.4878 28.9223 6.70887 31.5646 5.48853C34.207 4.26819 37.086 3.63592 40.0002 3.63599C45.2975 3.63775 50.3779 5.72534 54.1271 9.44091C57.8763 13.1565 59.9884 18.1967 60 23.4562C60.0002 24.5375 59.912 25.617 59.7364 26.6841L59.2092 29.8818L59.5471 31.8178" stroke="black" stroke-width="3" stroke-miterlimit="10" stroke-linecap="round"/>
<path d="M40.0018 25.4559C41.0059 25.4559 41.82 24.6419 41.82 23.6378C41.82 22.6336 41.0059 21.8196 40.0018 21.8196C38.9976 21.8196 38.1836 22.6336 38.1836 23.6378C38.1836 24.6419 38.9976 25.4559 40.0018 25.4559Z" stroke="black" stroke-width="2.5" stroke-miterlimit="10" stroke-linecap="round"/>
<path d="M27.2717 64.5358L26.9413 75.2735C26.9338 75.5663 26.8244 75.8442 26.6365 76.0479C26.4486 76.2516 26.1971 76.3651 25.9356 76.3641C25.6745 76.3635 25.4239 76.2494 25.2363 76.046C25.0487 75.8426 24.9389 75.5657 24.9299 75.2735L24.5444 62.7278C25.4147 63.4011 26.326 64.0052 27.2717 64.5358Z" stroke="black" stroke-width="2.5" stroke-miterlimit="10" stroke-linecap="round"/>
<path d="M55.4553 62.7278L55.0723 75.2735C55.064 75.566 54.9543 75.8434 54.7664 76.047C54.5785 76.2505 54.3271 76.3643 54.0656 76.3641C53.8038 76.3651 53.552 76.2516 53.3639 76.0479C53.1758 75.8442 53.0663 75.5663 53.0588 75.2735L52.728 64.5423C53.673 64.0078 54.5843 63.4015 55.4553 62.7278Z" stroke="black" stroke-width="2.5" stroke-miterlimit="10" stroke-linecap="round"/>
</svg>
