<svg width="21" height="24" viewBox="0 0 21 24" fill="none" xmlns="http://www.w3.org/2000/svg">
<path d="M4.75 21.1875V23.0625" stroke="black" stroke-width="2" stroke-miterlimit="10" stroke-linecap="round" stroke-linejoin="round"/>
<path d="M16 21.1875V23.0625" stroke="black" stroke-width="2" stroke-miterlimit="10" stroke-linecap="round" stroke-linejoin="round"/>
<path d="M7.5625 5.4375C7.5625 6.47302 8.40198 7.3125 9.4375 7.3125H11.3125C12.348 7.3125 13.1875 6.47302 13.1875 5.4375" stroke="black" stroke-width="2" stroke-miterlimit="10" stroke-linecap="round" stroke-linejoin="round"/>
<path d="M7.5625 14.8125C7.5625 15.848 8.40198 16.6875 9.4375 16.6875H11.3125C12.348 16.6875 13.1875 15.848 13.1875 14.8125" stroke="black" stroke-width="2" stroke-miterlimit="10" stroke-linecap="round" stroke-linejoin="round"/>
<path d="M1 11.0625H19.75V4.6875C19.75 2.61642 18.0711 0.9375 16 0.9375H4.75C2.67892 0.9375 1 2.61642 1 4.6875V17.4375C1 19.5086 2.67892 21.1875 4.75 21.1875H16C18.0711 21.1875 19.75 19.5086 19.75 17.4375V14.8125" stroke="black" stroke-width="2" stroke-miterlimit="10" stroke-linecap="round" stroke-linejoin="round"/>
</svg>
