<svg width="80" height="79" viewBox="0 0 80 79" fill="none" xmlns="http://www.w3.org/2000/svg">
<path d="M68.2182 67.5197C67.2361 66.1035 61.9208 59.4206 48.4395 58.1766V56.5551C49.2903 56.4411 49.9479 55.72 49.9479 54.8387V49.9375H62.2923C65.7929 49.9375 68.641 47.0894 68.641 43.5879V41.2861C68.641 37.7855 65.7929 34.9364 62.2923 34.9364H37.6984H36.297V32.8921H43.9628C46.8092 32.8921 49.125 30.5763 49.125 27.7299V5.16219C49.125 2.31664 46.8092 0 43.9628 0H22.479H19.0837H18.2651C15.8701 0 13.9224 1.94778 13.9224 4.3427V5.16131V27.7291V28.5477C13.9224 30.9426 15.8701 32.8904 18.2651 32.8904H19.0837H22.479H27.5594V34.9347H27.1801C23.6795 34.9347 20.8305 37.7828 20.8305 41.2843V43.5862C20.8305 47.0868 23.6786 49.9358 27.1801 49.9358H37.6984H38.029V54.837C38.029 55.7191 38.6876 56.4394 39.5384 56.5533V58.1871C27.5942 59.3659 22.9 65.1448 21.4803 67.4658C18.8436 67.9764 16.8445 70.3 16.8445 73.0838C16.8445 76.2408 19.4134 78.8097 22.5703 78.8097C25.7273 78.8097 28.2962 76.2408 28.2962 73.0838C28.2962 70.9211 27.0905 69.036 25.3167 68.0625C27.087 65.9321 31.2175 62.502 39.8359 61.6486C40.1482 62.1122 40.678 62.4167 41.2791 62.4167H42.2499V67.6319C39.9411 68.3705 38.2639 70.5349 38.2639 73.0847C38.2639 76.2416 40.8328 78.8106 43.9898 78.8106C47.1468 78.8106 49.7157 76.2416 49.7157 73.0847C49.7157 70.534 48.0384 68.3705 45.7296 67.6319V62.4167H46.7005C47.3033 62.4167 47.834 62.1096 48.1463 61.6433C57.1892 62.4993 62.0235 66.0321 64.1174 68.0869C62.3653 69.0673 61.177 70.9385 61.177 73.0847C61.177 76.2416 63.7459 78.8106 66.9029 78.8106C70.0599 78.8106 72.6288 76.2416 72.6288 73.0847C72.627 70.3827 70.7419 68.1165 68.2182 67.5197ZM22.5703 75.3326C21.3324 75.3326 20.3242 74.3252 20.3242 73.0864C20.3242 71.8485 21.3316 70.8411 22.5703 70.8411C23.8091 70.8411 24.8165 71.8485 24.8165 73.0864C24.8165 74.3243 23.8083 75.3326 22.5703 75.3326ZM43.9889 75.3326C42.751 75.3326 41.7428 74.3252 41.7428 73.0864C41.7428 71.8485 42.7501 70.8411 43.9889 70.8411C45.2277 70.8411 46.2351 71.8485 46.2351 73.0864C46.2351 74.3243 45.2277 75.3326 43.9889 75.3326ZM65.1622 41.2869V43.5888C65.1622 45.1712 63.8755 46.4587 62.2931 46.4587H43.3547C43.7941 45.5957 44.0481 44.6223 44.0481 43.5888V41.2869C44.0481 40.2535 43.7949 39.28 43.3547 38.417H62.2923C63.8747 38.417 65.1622 39.7045 65.1622 41.2869ZM45.6444 5.16391V27.7317C45.6444 28.659 44.8902 29.4141 43.9619 29.4141H34.5563H29.2984H26.7338C26.7904 29.1349 26.8208 28.8469 26.8208 28.5511V4.34533C26.8208 4.04955 26.7904 3.7616 26.7338 3.48235H43.9619C44.8902 3.48148 45.6444 4.2357 45.6444 5.16391ZM19.0828 29.4132C18.1554 29.4132 17.4003 28.659 17.4003 27.7308V5.16306C17.4003 4.23572 18.1546 3.4806 19.0828 3.4806H22.4781C22.954 3.4806 23.3411 3.86772 23.3411 4.34358V28.5494C23.3411 29.0253 22.954 29.4124 22.4781 29.4124L19.0828 29.4132ZM31.0383 32.893H32.8164V34.9373H31.0383V32.893ZM27.1801 46.4578C25.5977 46.4578 24.3102 45.1712 24.3102 43.5879V41.2861C24.3102 39.7037 25.5977 38.4162 27.1801 38.4162H29.2993H34.5571H37.6984C39.2809 38.4162 40.5683 39.7028 40.5683 41.2861V43.5879C40.5683 45.1703 39.2809 46.4578 37.6984 46.4578H27.1801ZM46.4682 49.9375V53.0989H41.5087V49.9375H46.4682ZM43.0181 56.5786H44.9589V57.9896C44.6361 57.9835 44.3186 57.974 43.988 57.974C43.6566 57.974 43.3399 57.9844 43.0172 57.9905L43.0181 56.5786ZM66.902 75.3326C65.6641 75.3326 64.6559 74.3252 64.6559 73.0864C64.6559 71.8485 65.6632 70.8411 66.902 70.8411C68.1408 70.8411 69.1482 71.8485 69.1482 73.0864C69.1473 74.3243 68.1399 75.3326 66.902 75.3326Z" fill="black"/>
<path d="M24.3059 60.678C24.3059 59.7176 23.5264 58.9382 22.566 58.9382H3.47972V16.1445H10.4966C11.457 16.1445 12.2365 15.3651 12.2365 14.4047C12.2365 13.4443 11.457 12.6648 10.4966 12.6648H1.73986C0.779458 12.6648 0 13.4443 0 14.4047V60.678C0 61.6384 0.779458 62.4179 1.73986 62.4179H22.566C23.5273 62.4179 24.3059 61.6384 24.3059 60.678Z" fill="black"/>
<path d="M78.2621 12.6648H53.0201C52.0597 12.6648 51.2803 13.4443 51.2803 14.4047C51.2803 15.3651 52.0597 16.1445 53.0201 16.1445H76.5222V58.9382H68.2935C67.3331 58.9382 66.5537 59.7176 66.5537 60.678C66.5537 61.6384 67.3331 62.4179 68.2935 62.4179H78.2621C79.2225 62.4179 80.0019 61.6384 80.0019 60.678V14.4047C80.0019 13.4434 79.2225 12.6648 78.2621 12.6648Z" fill="black"/>
</svg>
