<svg width="24" height="24" viewBox="0 0 24 24" fill="none" xmlns="http://www.w3.org/2000/svg">
<rect width="24" height="24" rx="12" fill="black"/>
<path d="M12.0022 5.60156C10.264 5.60156 10.0459 5.60916 9.3632 5.64023C8.68186 5.67143 8.21679 5.7793 7.80985 5.93757C7.38891 6.10103 7.03184 6.3197 6.67611 6.67557C6.3201 7.03131 6.10143 7.38838 5.93743 7.80919C5.77876 8.21626 5.67076 8.68146 5.6401 9.36253C5.60956 10.0452 5.60156 10.2635 5.60156 12.0016C5.60156 13.7398 5.6093 13.9572 5.64023 14.6399C5.67156 15.3213 5.77943 15.7863 5.93757 16.1933C6.10117 16.6142 6.31984 16.9713 6.67571 17.327C7.03131 17.683 7.38838 17.9022 7.80905 18.0657C8.21626 18.224 8.68146 18.3318 9.36267 18.363C10.0453 18.3941 10.2633 18.4017 12.0014 18.4017C13.7396 18.4017 13.9571 18.3941 14.6398 18.363C15.3211 18.3318 15.7867 18.224 16.1939 18.0657C16.6147 17.9022 16.9713 17.683 17.3269 17.327C17.6829 16.9713 17.9016 16.6142 18.0656 16.1934C18.2229 15.7863 18.3309 15.3211 18.3629 14.6401C18.3936 13.9574 18.4016 13.7398 18.4016 12.0016C18.4016 10.2635 18.3936 10.0453 18.3629 9.36267C18.3309 8.68133 18.2229 8.21626 18.0656 7.80932C17.9016 7.38838 17.6829 7.03131 17.3269 6.67557C16.9709 6.31957 16.6149 6.1009 16.1935 5.93757C15.7855 5.7793 15.3202 5.67143 14.6389 5.64023C13.9562 5.60916 13.7388 5.60156 12.0002 5.60156H12.0022Z" fill="white"/>
<path fill-rule="evenodd" clip-rule="evenodd" d="M11.4304 6.75551C11.5419 6.75533 11.6618 6.75539 11.7912 6.75544L12.0045 6.75551C13.7134 6.75551 13.9159 6.76164 14.5907 6.79231C15.2147 6.82084 15.5534 6.92511 15.779 7.01271C16.0776 7.12871 16.2906 7.26738 16.5144 7.49138C16.7384 7.71538 16.8771 7.92872 16.9934 8.22739C17.081 8.45272 17.1854 8.79139 17.2138 9.4154C17.2445 10.0901 17.2511 10.2927 17.2511 12.0008C17.2511 13.7088 17.2445 13.9114 17.2138 14.5861C17.1853 15.2101 17.081 15.5488 16.9934 15.7741C16.8774 16.0728 16.7384 16.2855 16.5144 16.5093C16.2904 16.7333 16.0778 16.872 15.779 16.988C15.5536 17.076 15.2147 17.18 14.5907 17.2085C13.916 17.2392 13.7134 17.2459 12.0045 17.2459C10.2956 17.2459 10.093 17.2392 9.41837 17.2085C8.79437 17.1797 8.4557 17.0755 8.22996 16.9879C7.93129 16.8719 7.71796 16.7332 7.49395 16.5092C7.26995 16.2852 7.13128 16.0724 7.01502 15.7736C6.92741 15.5483 6.82301 15.2096 6.79461 14.5856C6.76395 13.9109 6.75781 13.7082 6.75781 11.9992C6.75781 10.2901 6.76395 10.0885 6.79461 9.4138C6.82315 8.78979 6.92741 8.45112 7.01502 8.22552C7.13102 7.92685 7.26995 7.71352 7.49395 7.48951C7.71796 7.26551 7.93129 7.12684 8.22996 7.01058C8.45556 6.92257 8.79437 6.81857 9.41837 6.78991C10.0088 6.76324 10.2376 6.75524 11.4304 6.75391V6.75551ZM15.4243 7.82058C15.0003 7.82058 14.6562 8.16418 14.6562 8.58832C14.6562 9.01233 15.0003 9.35633 15.4243 9.35633C15.8483 9.35633 16.1923 9.01233 16.1923 8.58832C16.1923 8.16432 15.8483 7.82031 15.4243 7.82031V7.82058ZM8.71875 12.0015C8.71875 10.1865 10.1903 8.71492 12.0053 8.71484C13.8204 8.71484 15.2916 10.1865 15.2916 12.0015C15.2916 13.8166 13.8205 15.2876 12.0055 15.2876C10.1904 15.2876 8.71875 13.8166 8.71875 12.0015Z" fill="black"/>
<path d="M12.0005 9.86719C13.1787 9.86719 14.1339 10.8223 14.1339 12.0005C14.1339 13.1787 13.1787 14.1339 12.0005 14.1339C10.8223 14.1339 9.86719 13.1787 9.86719 12.0005C9.86719 10.8223 10.8223 9.86719 12.0005 9.86719Z" fill="black"/>
</svg>
