<?xml version="1.0" encoding="UTF-8"?>
<svg xmlns="http://www.w3.org/2000/svg" xmlns:xlink="http://www.w3.org/1999/xlink" width="2836" height="2836" viewBox="0 0 2836 2836">
<path fill-rule="evenodd" fill="rgb(100%, 100%, 100%)" fill-opacity="1" d="M 0.882812 0.46875 L 2835.53125 0.46875 L 2835.53125 2835.117188 L 0.882812 2835.117188 L 0.882812 0.46875 "/>
<path fill-rule="nonzero" fill="rgb(0%, 0%, 0%)" fill-opacity="1" d="M 1546.441406 2180.375 C 1584.570312 2180.375 1615.480469 2211.285156 1615.480469 2249.414062 C 1615.480469 2287.542969 1584.570312 2318.453125 1546.441406 2318.453125 L 898.761719 2318.453125 C 806.515625 2318.453125 722.574219 2280.496094 661.660156 2219.34375 C 600.863281 2158.304688 563.125 2074.203125 563.125 1981.777344 L 563.125 853.609375 C 563.125 761.179688 600.863281 677.078125 661.660156 616.039062 C 722.574219 554.890625 806.515625 516.929688 898.761719 516.929688 L 1546.980469 516.929688 C 1585.109375 516.929688 1616.019531 547.839844 1616.019531 585.96875 C 1616.019531 624.101562 1585.109375 655.011719 1546.980469 655.011719 L 898.761719 655.011719 C 844.378906 655.011719 795.011719 677.269531 759.289062 713.128906 C 723.453125 749.109375 701.203125 798.828125 701.203125 853.609375 L 701.203125 1981.777344 C 701.203125 2036.550781 723.453125 2086.273438 759.289062 2122.253906 C 795.011719 2158.113281 844.378906 2180.375 898.761719 2180.375 Z M 2248.660156 1424.410156 C 2263.621094 1437.070312 2273.121094 1455.988281 2273.121094 1477.121094 C 2273.121094 1498.25 2263.621094 1517.171875 2248.660156 1529.828125 L 1883.621094 1888.574219 C 1856.511719 1915.234375 1812.921875 1914.875 1786.261719 1887.765625 C 1759.601562 1860.660156 1759.96875 1817.070312 1787.070312 1790.410156 L 2035.609375 1546.160156 L 1021.601562 1546.160156 C 983.472656 1546.160156 952.558594 1515.25 952.558594 1477.121094 C 952.558594 1438.988281 983.472656 1408.078125 1021.601562 1408.078125 L 2035.609375 1408.078125 L 1787.070312 1163.828125 C 1759.96875 1137.171875 1759.601562 1093.578125 1786.261719 1066.46875 C 1812.921875 1039.371094 1856.511719 1039.011719 1883.621094 1065.671875 L 2248.660156 1424.410156 "/>
</svg>
