<svg width="121" height="18" viewBox="0 0 121 18" fill="none" xmlns="http://www.w3.org/2000/svg">
<path d="M9.77728 0.230779L12.4622 5.68903L18.4642 6.56451C18.5403 6.57584 18.6118 6.60821 18.6706 6.65797C18.7294 6.70774 18.7731 6.77292 18.7968 6.84619C18.8206 6.91945 18.8234 6.99789 18.8049 7.07266C18.7865 7.14743 18.7475 7.21557 18.6925 7.2694L14.3502 11.5171L15.3754 17.5162C15.3887 17.592 15.3804 17.6701 15.3515 17.7414C15.3226 17.8128 15.2743 17.8746 15.2121 17.9199C15.1499 17.9652 15.0762 17.9922 14.9994 17.9978C14.9227 18.0034 14.8459 17.9873 14.7777 17.9515L9.40909 15.1197L4.04043 17.9523C3.97236 17.9883 3.89556 18.0044 3.81876 17.999C3.74196 17.9935 3.66824 17.9665 3.60598 17.9212C3.54372 17.8759 3.49542 17.8141 3.46656 17.7427C3.4377 17.6713 3.42945 17.5933 3.44273 17.5174L4.46794 11.5171L0.124497 7.2694C0.0694237 7.21557 0.0304737 7.14743 0.0120329 7.07266C-0.00640796 6.99789 -0.00360708 6.91945 0.0201201 6.84619C0.0438473 6.77292 0.0875583 6.70774 0.146331 6.65797C0.205103 6.60821 0.276602 6.57584 0.352776 6.56451L6.35473 5.68903L9.0409 0.230779C9.0744 0.161612 9.1267 0.103279 9.19182 0.0624633C9.25694 0.0216477 9.33224 0 9.40909 0C9.48594 0 9.56124 0.0216477 9.62636 0.0624633C9.69148 0.103279 9.74378 0.161612 9.77728 0.230779Z" fill="#FFC107"/>
<path d="M35.3007 0.230779L37.9857 5.68903L43.9876 6.56451C44.0638 6.57584 44.1353 6.60821 44.1941 6.65797C44.2528 6.70774 44.2965 6.77292 44.3203 6.84619C44.344 6.91945 44.3468 6.99789 44.3284 7.07266C44.3099 7.14743 44.271 7.21557 44.2159 7.2694L39.8737 11.5171L40.8989 17.5162C40.9121 17.592 40.9038 17.6701 40.8749 17.7414C40.8461 17.8128 40.7978 17.8746 40.7356 17.9199C40.6733 17.9652 40.5997 17.9922 40.5229 17.9978C40.4461 18.0034 40.3693 17.9873 40.3012 17.9515L34.9325 15.1197L29.5639 17.9523C29.4958 17.9883 29.419 18.0044 29.3422 17.999C29.2654 17.9935 29.1917 17.9665 29.1294 17.9212C29.0672 17.8759 29.0189 17.8141 28.99 17.7427C28.9611 17.6713 28.9529 17.5933 28.9662 17.5174L29.9914 11.5171L25.6479 7.2694C25.5929 7.21557 25.5539 7.14743 25.5355 7.07266C25.517 6.99789 25.5198 6.91945 25.5436 6.84619C25.5673 6.77292 25.611 6.70774 25.6698 6.65797C25.7285 6.60821 25.8 6.57584 25.8762 6.56451L31.8782 5.68903L34.5643 0.230779C34.5978 0.161612 34.6501 0.103279 34.7153 0.0624633C34.7804 0.0216477 34.8557 0 34.9325 0C35.0094 0 35.0847 0.0216477 35.1498 0.0624633C35.2149 0.103279 35.2672 0.161612 35.3007 0.230779Z" fill="#FFC107"/>
<path d="M60.8242 0.230779L63.5091 5.68903L69.511 6.56451C69.5872 6.57584 69.6587 6.60821 69.7175 6.65797C69.7763 6.70774 69.82 6.77292 69.8437 6.84619C69.8674 6.91945 69.8702 6.99789 69.8518 7.07266C69.8334 7.14743 69.7944 7.21557 69.7393 7.2694L65.3971 11.5171L66.4223 17.5162C66.4355 17.592 66.4272 17.6701 66.3984 17.7414C66.3695 17.8128 66.3212 17.8746 66.259 17.9199C66.1968 17.9652 66.1231 17.9922 66.0463 17.9978C65.9695 18.0034 65.8927 17.9873 65.8246 17.9515L60.456 15.1197L55.0873 17.9523C55.0192 17.9883 54.9424 18.0044 54.8656 17.999C54.7888 17.9935 54.7151 17.9665 54.6529 17.9212C54.5906 17.8759 54.5423 17.8141 54.5134 17.7427C54.4846 17.6713 54.4763 17.5933 54.4896 17.5174L55.5148 11.5171L51.1714 7.2694C51.1163 7.21557 51.0773 7.14743 51.0589 7.07266C51.0405 6.99789 51.0433 6.91945 51.067 6.84619C51.0907 6.77292 51.1344 6.70774 51.1932 6.65797C51.252 6.60821 51.3235 6.57584 51.3997 6.56451L57.4016 5.68903L60.0878 0.230779C60.1213 0.161612 60.1736 0.103279 60.2387 0.0624633C60.3038 0.0216477 60.3791 0 60.456 0C60.5328 0 60.6081 0.0216477 60.6732 0.0624633C60.7384 0.103279 60.7907 0.161612 60.8242 0.230779Z" fill="#FFC107"/>
<path d="M86.3476 0.230779L89.0325 5.68903L95.0345 6.56451C95.1107 6.57584 95.1822 6.60821 95.2409 6.65797C95.2997 6.70774 95.3434 6.77292 95.3671 6.84619C95.3909 6.91945 95.3937 6.99789 95.3752 7.07266C95.3568 7.14743 95.3178 7.21557 95.2628 7.2694L90.9205 11.5171L91.9458 17.5162C91.959 17.592 91.9507 17.6701 91.9218 17.7414C91.8929 17.8128 91.8447 17.8746 91.7824 17.9199C91.7202 17.9652 91.6465 17.9922 91.5698 17.9978C91.493 18.0034 91.4162 17.9873 91.3481 17.9515L85.9794 15.1197L80.6107 17.9523C80.5427 17.9883 80.4659 18.0044 80.3891 17.999C80.3123 17.9935 80.2386 17.9665 80.1763 17.9212C80.114 17.8759 80.0657 17.8141 80.0369 17.7427C80.008 17.6713 79.9998 17.5933 80.013 17.5174L81.0383 11.5171L76.6948 7.2694C76.6397 7.21557 76.6008 7.14743 76.5823 7.07266C76.5639 6.99789 76.5667 6.91945 76.5904 6.84619C76.6142 6.77292 76.6579 6.70774 76.7166 6.65797C76.7754 6.60821 76.8469 6.57584 76.9231 6.56451L82.925 5.68903L85.6112 0.230779C85.6447 0.161612 85.697 0.103279 85.7621 0.0624633C85.8272 0.0216477 85.9025 0 85.9794 0C86.0563 0 86.1316 0.0216477 86.1967 0.0624633C86.2618 0.103279 86.3141 0.161612 86.3476 0.230779Z" fill="#FFC107"/>
<path d="M111.871 0.230779L114.556 5.68903L120.558 6.56451C120.634 6.57584 120.706 6.60821 120.764 6.65797C120.823 6.70774 120.867 6.77292 120.891 6.84619C120.914 6.91945 120.917 6.99789 120.899 7.07266C120.88 7.14743 120.841 7.21557 120.786 7.2694L116.444 11.5171L117.469 17.5162C117.482 17.592 117.474 17.6701 117.445 17.7414C117.416 17.8128 117.368 17.8746 117.306 17.9199C117.244 17.9652 117.17 17.9922 117.093 17.9978C117.016 18.0034 116.94 17.9873 116.871 17.9515L111.503 15.1197L106.134 17.9523C106.066 17.9883 105.989 18.0044 105.913 17.999C105.836 17.9935 105.762 17.9665 105.7 17.9212C105.637 17.8759 105.589 17.8141 105.56 17.7427C105.531 17.6713 105.523 17.5933 105.536 17.5174L106.562 11.5171L102.218 7.2694C102.163 7.21557 102.124 7.14743 102.106 7.07266C102.087 6.99789 102.09 6.91945 102.114 6.84619C102.138 6.77292 102.181 6.70774 102.24 6.65797C102.299 6.60821 102.37 6.57584 102.447 6.56451L108.448 5.68903L111.135 0.230779C111.168 0.161612 111.22 0.103279 111.286 0.0624633C111.351 0.0216477 111.426 0 111.503 0C111.58 0 111.655 0.0216477 111.72 0.0624633C111.785 0.103279 111.838 0.161612 111.871 0.230779Z" fill="#FFC107"/>
</svg>
